<svg width="36" height="32" viewBox="0 0 36 32" fill="none" xmlns="http://www.w3.org/2000/svg">
<path d="M15.7069 28.5056C22.6137 28.5056 28.2127 22.9066 28.2127 15.9999C28.2127 9.09316 22.6137 3.49414 15.7069 3.49414C8.80019 3.49414 3.20117 9.09316 3.20117 15.9999C3.20117 22.9066 8.80019 28.5056 15.7069 28.5056Z" fill="white"/>
<path fill-rule="evenodd" clip-rule="evenodd" d="M32.7977 16C32.7977 19.6493 31.571 23.0131 29.5059 25.7048C29.5059 25.7048 29.5059 25.7048 29.5059 25.7048L35.7924 32L16.7318 32C7.85892 32 0.666016 24.8366 0.666016 16C0.666016 7.16344 7.85892 0 16.7318 0C25.6047 0 32.7977 7.16344 32.7977 16ZM19.6352 11.3629C19.7877 11.6427 20.0536 11.843 20.3646 11.9122L25.5377 13.0633C25.8145 13.1249 25.9205 13.4635 25.7281 13.6719L22.2289 17.4619C22.0096 17.6993 21.9056 18.021 21.944 18.3417L22.5901 23.7337C22.6245 24.0208 22.3296 24.2334 22.0681 24.1102L17.2057 21.8188C16.9058 21.6776 16.5583 21.6785 16.2592 21.8216L11.4853 24.1048C11.2236 24.2299 10.9269 24.0171 10.9614 23.7293L11.6062 18.3485C11.6451 18.0237 11.538 17.6985 11.3137 17.4605L7.74541 13.673C7.54979 13.4653 7.65476 13.1237 7.93323 13.0617L13.099 11.9122C13.4101 11.843 13.676 11.6427 13.8284 11.3629L16.4088 6.62576C16.5482 6.36993 16.9155 6.36993 17.0548 6.62576L19.6352 11.3629Z" fill="#F06A22"/>
</svg>
