<svg width="39" height="38" viewBox="0 0 39 38" fill="none" xmlns="http://www.w3.org/2000/svg">
<path d="M28.2124 4.93132C22.0957 -1.46169 11.9142 -1.65901 5.52117 4.45777C-0.871851 10.5745 -1.06916 20.756 5.04761 27.149L9.90157 32.2003C16.0183 38.5933 26.1998 38.7906 32.5928 32.6739C38.9858 26.5571 39.1832 16.3756 33.0664 9.9826C33.0269 9.9826 28.2124 4.93132 28.2124 4.93132Z" fill="#FEEF7C"/>
<path d="M29.0855 5.79851C22.9687 -0.594507 12.7872 -0.791821 6.39421 5.32495C0.00119763 11.4417 -0.196119 21.6232 5.92066 28.0162L10.7746 33.0675C16.8914 39.4605 27.0729 39.6578 33.4659 33.5411C39.8589 27.4243 40.0562 17.2428 33.9394 10.8498L29.0855 5.79851Z" fill="#5CD3CB"/>
<path d="M3.39258 19.058C3.39258 27.9372 10.5749 35.1589 19.4935 35.1589C28.3727 35.1589 35.5944 27.9766 35.5944 19.058C35.5944 10.1788 28.4122 2.95703 19.4935 2.95703C10.6143 2.95703 3.39258 10.1788 3.39258 19.058ZM14.6001 21.9388C14.7579 21.3863 14.6001 20.8338 14.1265 20.4786C12.9426 19.571 10.5749 17.8346 8.99633 16.6507C8.75955 16.4929 8.68063 16.1772 8.75956 15.9009C8.83848 15.6247 9.11472 15.4668 9.39096 15.4668H15.5077C16.0602 15.4668 16.5732 15.1117 16.7706 14.5592C17.2441 13.099 18.1912 10.2182 18.8621 8.28455C18.941 8.0083 19.2173 7.85046 19.4935 7.85046C19.7698 7.85046 20.046 8.04777 20.1249 8.28455C20.7563 10.2182 21.7429 13.099 22.2165 14.5592C22.4138 15.1117 22.8873 15.4668 23.4793 15.4668C24.9394 15.4668 27.7018 15.4668 29.5961 15.4668C29.8723 15.4668 30.1485 15.6641 30.2275 15.9009C30.3064 16.1772 30.2275 16.4534 29.9907 16.6507C28.4122 17.8346 26.0838 19.6105 24.9 20.5181C24.4659 20.8733 24.2685 21.4257 24.4264 21.9782C24.9 23.4384 25.8076 26.3192 26.439 28.2923C26.5179 28.5686 26.439 28.8843 26.2022 29.0421C25.9655 29.2 25.6497 29.2 25.413 29.0421C23.8344 27.8188 21.5061 26.0429 20.3222 25.1353C19.8487 24.7801 19.1778 24.7801 18.7042 25.1353C17.5204 26.0429 15.2315 27.8188 13.653 29.0421C13.4162 29.2 13.1005 29.2394 12.8637 29.0421C12.6269 28.8843 12.5085 28.5686 12.6269 28.2923C13.2189 26.3192 14.166 23.3989 14.6001 21.9388Z" fill="black"/>
</svg>
